solid LCD-Faceplate
facet normal 0.0 0.0 -1.0
  outer loop
    vertex 0.0 1.5 0.0
    vertex 0.25422424944362376 1.2545353183551469 0.0
    vertex 0.0 0.0 0.0
  endloop
endfacet
facet normal 0.0 0.0 -1.0
  outer loop
    vertex 0.25422424944362376 1.2545353183551469 0.0
    vertex 0.0 1.5 0.0
    vertex 3.25 1.5 0.0
  endloop
endfacet
facet normal 0.0 0.0 -1.0
  outer loop
    vertex 0.25422424944362376 1.2545353183551469 0.0
    vertex 3.25 1.5 0.0
    vertex 3.0042242494436255 1.2545353183551469 0.0
  endloop
endfacet
facet normal 0.0 0.0 -1.0
  outer loop
    vertex 3.0042242494436255 1.2545353183551469 0.0
    vertex 3.25 1.5 0.0
    vertex 3.0042242494436255 0.25453531835514864 0.0
  endloop
endfacet
facet normal 0.0 0.0 -1.0
  outer loop
    vertex 0.0 0.0 0.0
    vertex 0.25422424944362376 0.25453531835514864 0.0
    vertex 3.25 0.0 0.0
  endloop
endfacet
facet normal 0.0 0.0 -1.0
  outer loop
    vertex 0.25422424944362376 0.25453531835514864 0.0
    vertex 0.0 0.0 0.0
    vertex 0.25422424944362376 1.2545353183551469 0.0
  endloop
endfacet
facet normal 0.0 0.0 -1.0
  outer loop
    vertex 3.25 0.0 0.0
    vertex 0.25422424944362376 0.25453531835514864 0.0
    vertex 3.0042242494436255 0.25453531835514864 0.0
  endloop
endfacet
facet normal 0.0 0.0 -1.0
  outer loop
    vertex 3.25 0.0 0.0
    vertex 3.0042242494436255 0.25453531835514864 0.0
    vertex 3.25 1.5 0.0
  endloop
endfacet
facet normal -0.0 -1.0 -0.0
  outer loop
    vertex 3.25 0.0 0.03937007874015748
    vertex 0.0 0.0 0.0
    vertex 3.25 0.0 0.0
  endloop
endfacet
facet normal -0.0 -1.0 -0.0
  outer loop
    vertex 0.0 0.0 0.0
    vertex 3.25 0.0 0.03937007874015748
    vertex 0.0 0.0 0.03937007874015748
  endloop
endfacet
facet normal 0.0 1.0 0.0
  outer loop
    vertex 0.25422424944362376 1.2545353183551469 0.03937007874015748
    vertex 3.0042242494436255 1.2545353183551469 0.0
    vertex 0.25422424944362376 1.2545353183551469 0.0
  endloop
endfacet
facet normal 0.0 1.0 0.0
  outer loop
    vertex 3.0042242494436255 1.2545353183551469 0.0
    vertex 0.25422424944362376 1.2545353183551469 0.03937007874015748
    vertex 3.0042242494436255 1.2545353183551469 0.03937007874015748
  endloop
endfacet
facet normal 1.0 0.0 0.0
  outer loop
    vertex 3.25 1.5 0.0
    vertex 3.25 0.0 0.03937007874015748
    vertex 3.25 0.0 0.0
  endloop
endfacet
facet normal 1.0 0.0 0.0
  outer loop
    vertex 3.25 0.0 0.03937007874015748
    vertex 3.25 1.5 0.0
    vertex 3.25 1.5 0.03937007874015748
  endloop
endfacet
facet normal 1.0 0.0 0.0
  outer loop
    vertex 3.0042242494436255 1.2545353183551469 0.0
    vertex 3.0042242494436255 0.25453531835514864 0.03937007874015748
    vertex 3.0042242494436255 0.25453531835514864 0.0
  endloop
endfacet
facet normal 1.0 0.0 0.0
  outer loop
    vertex 3.0042242494436255 0.25453531835514864 0.03937007874015748
    vertex 3.0042242494436255 1.2545353183551469 0.0
    vertex 3.0042242494436255 1.2545353183551469 0.03937007874015748
  endloop
endfacet
facet normal 0.0 -1.0 0.0
  outer loop
    vertex 3.0042242494436255 0.25453531835514864 0.03937007874015748
    vertex 0.25422424944362376 0.25453531835514864 0.0
    vertex 3.0042242494436255 0.25453531835514864 0.0
  endloop
endfacet
facet normal 0.0 -1.0 0.0
  outer loop
    vertex 0.25422424944362376 0.25453531835514864 0.0
    vertex 3.0042242494436255 0.25453531835514864 0.03937007874015748
    vertex 0.25422424944362376 0.25453531835514864 0.03937007874015748
  endloop
endfacet
facet normal 0.0 0.0 1.0
  outer loop
    vertex 0.0 0.0 0.03937007874015748
    vertex 0.25422424944362376 0.25453531835514864 0.03937007874015748
    vertex 0.0 1.5 0.03937007874015748
  endloop
endfacet
facet normal 0.0 0.0 1.0
  outer loop
    vertex 0.25422424944362376 0.25453531835514864 0.03937007874015748
    vertex 0.0 0.0 0.03937007874015748
    vertex 3.25 0.0 0.03937007874015748
  endloop
endfacet
facet normal 0.0 0.0 1.0
  outer loop
    vertex 0.25422424944362376 0.25453531835514864 0.03937007874015748
    vertex 3.25 0.0 0.03937007874015748
    vertex 3.0042242494436255 0.25453531835514864 0.03937007874015748
  endloop
endfacet
facet normal 0.0 0.0 1.0
  outer loop
    vertex 3.0042242494436255 0.25453531835514864 0.03937007874015748
    vertex 3.25 0.0 0.03937007874015748
    vertex 3.0042242494436255 1.2545353183551469 0.03937007874015748
  endloop
endfacet
facet normal 0.0 0.0 1.0
  outer loop
    vertex 0.0 1.5 0.03937007874015748
    vertex 0.25422424944362376 1.2545353183551469 0.03937007874015748
    vertex 3.25 1.5 0.03937007874015748
  endloop
endfacet
facet normal 0.0 0.0 1.0
  outer loop
    vertex 0.25422424944362376 1.2545353183551469 0.03937007874015748
    vertex 0.0 1.5 0.03937007874015748
    vertex 0.25422424944362376 0.25453531835514864 0.03937007874015748
  endloop
endfacet
facet normal 0.0 0.0 1.0
  outer loop
    vertex 3.25 1.5 0.03937007874015748
    vertex 0.25422424944362376 1.2545353183551469 0.03937007874015748
    vertex 3.0042242494436255 1.2545353183551469 0.03937007874015748
  endloop
endfacet
facet normal 0.0 0.0 1.0
  outer loop
    vertex 3.25 1.5 0.03937007874015748
    vertex 3.0042242494436255 1.2545353183551469 0.03937007874015748
    vertex 3.25 0.0 0.03937007874015748
  endloop
endfacet
facet normal -1.0 0.0 0.0
  outer loop
    vertex 0.25422424944362376 1.2545353183551469 0.03937007874015748
    vertex 0.25422424944362376 0.25453531835514864 0.0
    vertex 0.25422424944362376 0.25453531835514864 0.03937007874015748
  endloop
endfacet
facet normal -1.0 0.0 0.0
  outer loop
    vertex 0.25422424944362376 0.25453531835514864 0.0
    vertex 0.25422424944362376 1.2545353183551469 0.03937007874015748
    vertex 0.25422424944362376 1.2545353183551469 0.0
  endloop
endfacet
facet normal -1.0 0.0 0.0
  outer loop
    vertex 0.0 1.5 0.03937007874015748
    vertex 0.0 0.0 0.0
    vertex 0.0 0.0 0.03937007874015748
  endloop
endfacet
facet normal -1.0 0.0 0.0
  outer loop
    vertex 0.0 0.0 0.0
    vertex 0.0 1.5 0.03937007874015748
    vertex 0.0 1.5 0.0
  endloop
endfacet
facet normal 0.0 1.0 0.0
  outer loop
    vertex 0.0 1.5 0.03937007874015748
    vertex 3.25 1.5 0.0
    vertex 0.0 1.5 0.0
  endloop
endfacet
facet normal 0.0 1.0 0.0
  outer loop
    vertex 3.25 1.5 0.0
    vertex 0.0 1.5 0.03937007874015748
    vertex 3.25 1.5 0.03937007874015748
  endloop
endfacet
endsolid LCD-Faceplate
